<svg width="128" height="87" viewBox="0 0 128 87" fill="none" xmlns="http://www.w3.org/2000/svg">
<path d="M11.6042 38.2466C6.76879 36.9055 1.73092 39.625 0.351878 44.3274C-1.02717 49.0297 1.76933 53.929 6.60471 55.2701L15.9054 57.8538L24.6161 41.8591L11.6042 38.2466Z" fill="#7BB7C2"/>
<path d="M119.058 8.41311C115.179 5.30311 109.443 5.83956 106.245 9.61502L97.6391 19.7701L114.142 28.1358L120.294 20.8769C123.492 17.1048 122.94 11.5265 119.058 8.41651V8.41311Z" fill="#7BB7C2"/>
<path d="M78.769 73.275C80.2633 77.9434 85.364 80.5509 90.1645 79.0978C94.9649 77.6446 97.6462 72.6842 96.152 68.0158L94.4308 62.631L77.0478 67.8902L78.769 73.275Z" fill="#7BB7C2"/>
<path d="M53.9809 80.7749C55.4752 85.4433 60.5759 88.0508 65.3764 86.5977C70.1768 85.1446 72.8581 80.1842 71.3639 75.5158L69.6427 70.131L52.2597 75.3901L53.9809 80.7749Z" fill="#7BB7C2"/>
<path d="M120.87 31.5444L61.522 1.46288C55.0597 -1.81349 47.0857 0.597101 43.6748 6.86125L12.3478 64.3759C6.80716 74.548 16.7049 86.1426 28.006 82.7236L118.677 55.2904C129.978 51.8714 131.361 36.8612 120.866 31.541L120.87 31.5444Z" fill="url(#paint0_linear_672_15234)"/>
<path d="M77.9066 39.024C77.5715 39.1259 77.2049 39.1428 76.8418 39.0613C75.7525 38.8101 75.0787 37.7508 75.3371 36.6949C77.1525 29.2153 86.722 27.7655 87.127 27.7078C88.2303 27.5516 89.2532 28.2918 89.4208 29.3647C89.5848 30.4375 88.8622 31.4459 87.724 31.5987C87.6542 31.6089 80.4622 32.7361 79.2787 37.5946C79.1076 38.2974 78.57 38.8237 77.9101 39.024H77.9066Z" fill="#242528"/>
<path d="M52.0923 46.833C51.4324 47.0333 50.6853 46.8975 50.1337 46.412C46.3213 43.0575 39.7472 46.103 39.6844 46.1336C38.665 46.6293 37.4709 46.2049 36.9822 45.2304C36.4934 44.256 36.9019 43.0813 37.9039 42.6026C38.2704 42.426 46.9916 38.345 52.8499 43.4989C53.6773 44.2255 53.7402 45.4715 52.9895 46.2762C52.7417 46.5444 52.4275 46.7311 52.0923 46.833Z" fill="#242528"/>
<path d="M58.9317 51.4063C60.3072 55.708 65.0064 58.1084 69.4299 56.7707C73.8533 55.433 76.3216 50.8631 74.946 46.5614L58.9352 51.4029L58.9317 51.4063Z" fill="#FB7A8E"/>
<defs>
<linearGradient id="paint0_linear_672_15234" x1="64" y1="6.90036" x2="64" y2="86.9538" gradientUnits="userSpaceOnUse">
<stop offset="0.1" stop-color="#A9DEE2"/>
<stop offset="1" stop-color="#7BB7C2"/>
</linearGradient>
</defs>
</svg>
