<svg width="238" height="240" viewBox="0 0 238 240" fill="none" xmlns="http://www.w3.org/2000/svg">
<path d="M121.5 240C188.603 240 243 186.274 243 120C243 53.7258 188.603 0 121.5 0C54.3974 0 0 53.7258 0 120C0 186.274 54.3974 240 121.5 240Z" fill="url(#paint0_linear_672_15235)"/>
<path d="M74.1801 154.046C76.2226 153.514 77.3186 150.987 76.6281 148.402C75.9376 145.817 73.7221 144.153 71.6796 144.686C69.6371 145.218 68.5411 147.745 69.2316 150.329C69.9221 152.914 72.1376 154.578 74.1801 154.046Z" fill="#242528"/>
<path d="M63.8592 178.145C69.0535 178.145 73.2643 173.986 73.2643 168.856C73.2643 163.726 69.0535 159.567 63.8592 159.567C58.665 159.567 54.4542 163.726 54.4542 168.856C54.4542 173.986 58.665 178.145 63.8592 178.145Z" fill="#FB7A8E"/>
<path d="M129.826 160.95C135.02 160.95 139.231 156.791 139.231 151.661C139.231 146.531 135.02 142.372 129.826 142.372C124.631 142.372 120.421 146.531 120.421 151.661C120.421 156.791 124.631 160.95 129.826 160.95Z" fill="#FB7A8E"/>
<path d="M114.768 143.471C116.811 142.939 117.907 140.412 117.216 137.828C116.526 135.243 114.31 133.579 112.268 134.111C110.225 134.643 109.129 137.17 109.82 139.755C110.51 142.34 112.726 144.004 114.768 143.471Z" fill="#242528"/>
<defs>
<linearGradient id="paint0_linear_672_15235" x1="121.5" y1="0" x2="121.5" y2="240" gradientUnits="userSpaceOnUse">
<stop offset="0.15" stop-color="#FFB7C2"/>
<stop offset="1" stop-color="#FB7A8E"/>
</linearGradient>
</defs>
</svg>
