<svg width="202" height="260" viewBox="0 0 202 260" fill="none" xmlns="http://www.w3.org/2000/svg">
<path d="M195.717 137.343L195.741 137.298C210.406 107.602 198.421 71.5402 168.979 56.7496L58.3123 1.16123C52.901 -1.55908 46.3278 0.663478 43.6307 6.12138L0.268009 93.9386C0.134354 94.2117 0.154911 94.5055 0.0418205 94.7855C-0.1124 95.0413 -0.355717 95.2037 -0.489372 95.4768L-43.8487 183.291C-46.5458 188.749 -44.3422 195.378 -38.9308 198.098L71.7327 253.687C101.175 268.477 136.933 256.393 151.594 226.695L151.618 226.65C160.806 208.04 159.521 186.937 150.038 170.128C169.051 167.632 186.522 155.953 195.714 137.343H195.717Z" fill="url(#paint0_linear_672_15233)"/>
<path d="M101.602 90.9777C102.819 88.5135 102.26 85.7399 100.353 84.7826C98.4474 83.8253 95.916 85.047 94.6995 87.5112C93.483 89.9754 94.0419 92.749 95.948 93.7063C97.8541 94.6635 100.386 93.4419 101.602 90.9777Z" fill="#242528"/>
<path d="M80.4478 96.9217C81.0099 96.9217 81.4656 96.4621 81.4656 95.8951C81.4656 95.3281 81.0099 94.8685 80.4478 94.8685C79.8856 94.8685 79.4299 95.3281 79.4299 95.8951C79.4299 96.4621 79.8856 96.9217 80.4478 96.9217Z" fill="#8089FF"/>
<path d="M74.6834 100.368C75.2455 100.368 75.7012 99.9082 75.7012 99.3413C75.7012 98.7743 75.2455 98.3147 74.6834 98.3147C74.1213 98.3147 73.6656 98.7743 73.6656 99.3413C73.6656 99.9082 74.1213 100.368 74.6834 100.368Z" fill="#8089FF"/>
<path d="M81.1914 103.634C81.7535 103.634 82.2093 103.175 82.2093 102.608C82.2093 102.041 81.7535 101.581 81.1914 101.581C80.6293 101.581 80.1736 102.041 80.1736 102.608C80.1736 103.175 80.6293 103.634 81.1914 103.634Z" fill="#8089FF"/>
<path d="M150.559 132.137C151.121 132.137 151.577 131.677 151.577 131.11C151.577 130.543 151.121 130.084 150.559 130.084C149.997 130.084 149.541 130.543 149.541 131.11C149.541 131.677 149.997 132.137 150.559 132.137Z" fill="#8089FF"/>
<path d="M144.795 135.583C145.357 135.583 145.812 135.124 145.812 134.557C145.812 133.99 145.357 133.53 144.795 133.53C144.232 133.53 143.777 133.99 143.777 134.557C143.777 135.124 144.232 135.583 144.795 135.583Z" fill="#8089FF"/>
<path d="M151.303 138.853C151.865 138.853 152.32 138.393 152.32 137.826C152.32 137.259 151.865 136.8 151.303 136.8C150.74 136.8 150.285 137.259 150.285 137.826C150.285 138.393 150.74 138.853 151.303 138.853Z" fill="#8089FF"/>
<path d="M125.575 128.003C125.26 127.056 124.246 126.544 123.307 126.862C118.409 128.518 114.026 128.449 110.448 126.548C104.355 123.416 102.073 116.289 102.052 116.216C102.021 116.119 101.956 116.05 101.911 115.964C102.792 115.252 103.56 114.284 104.187 113.022C104.633 112.127 104.095 111.066 103.382 110.596C102.498 110.15 101.421 110.513 100.979 111.405C100.335 112.697 99.5674 113.458 98.6969 113.658C97.4254 113.956 95.9449 113.088 95.4857 112.728C94.7112 112.124 93.5871 112.251 92.9771 113.033C92.3637 113.817 92.4973 114.954 93.2719 115.573C93.3952 115.67 93.9127 116.067 94.6975 116.462C95.6777 116.952 97.0793 117.398 98.6284 117.281C98.6284 117.288 98.6284 117.291 98.6284 117.298C98.7346 117.647 101.349 125.912 108.79 129.755C108.848 129.79 108.906 129.818 108.964 129.845C113.454 132.099 118.663 132.251 124.444 130.295C125.383 129.977 125.891 128.954 125.575 128.006V128.003Z" fill="#242528"/>
<path d="M147.846 114.202C149.062 111.738 148.503 108.965 146.597 108.007C144.691 107.05 142.16 108.272 140.943 110.736C139.727 113.2 140.286 115.974 142.192 116.931C144.098 117.888 146.629 116.667 147.846 114.202Z" fill="#242528"/>
<defs>
<linearGradient id="paint0_linear_672_15233" x1="78.4876" y1="-0.416592" x2="78.4876" y2="259.144" gradientUnits="userSpaceOnUse">
<stop offset="0.1" stop-color="#CCCCFF"/>
<stop offset="1" stop-color="#8089FF"/>
</linearGradient>
</defs>
</svg>
